<svg width="207" height="35" viewBox="0 0 207 35" fill="none" xmlns="http://www.w3.org/2000/svg">
<path d="M47.5332 5L67.6978 35H74.3665L54.2041 5H47.5332Z" fill="#F44E19"/>
<path d="M33.7334 5L53.898 35H60.5667L40.4021 5H33.7334Z" fill="#F44E19"/>
<path d="M19.9336 5L40.0982 35H46.7669L26.6045 5H19.9336Z" fill="#F44E19"/>
<path d="M26.8333 5L6.66873 35H0L20.1646 5H26.8333Z" fill="#F44E19"/>
<path d="M23.0004 24.2305H18.4004V28.8459H23.0004V24.2305Z" fill="#F44E19"/>
<path d="M23.0004 30.3843H18.4004V34.9997H23.0004V30.3843Z" fill="#F44E19"/>
<path d="M29.1342 24.2305H24.5342V28.8459H29.1342V24.2305Z" fill="#F44E19"/>
<path d="M29.1342 30.3843H24.5342V34.9997H29.1342V30.3843Z" fill="#F44E19"/>
<path d="M100.009 8.81818V35H96.3778L83.0696 15.7983H82.8267V35H78.8764V8.81818H82.5327L95.8537 28.0455H96.0966V8.81818H100.009ZM107.983 35H103.789L113.211 8.81818H117.775L127.197 35H123.004L115.602 13.5739H115.397L107.983 35ZM108.686 24.7472H122.288V28.071H108.686V24.7472ZM130.978 35V8.81818H134.928V20.196H147.981V8.81818H151.944V35H147.981V23.5838H134.928V35H130.978ZM161.647 8.81818V35H157.697V8.81818H161.647ZM175.876 35H167.4V8.81818H176.144C178.71 8.81818 180.913 9.34233 182.754 10.3906C184.594 11.4304 186.005 12.9261 186.985 14.8778C187.974 16.821 188.468 19.152 188.468 21.8707C188.468 24.598 187.969 26.9418 186.972 28.902C185.984 30.8622 184.552 32.3707 182.677 33.4276C180.802 34.4759 178.535 35 175.876 35ZM171.35 31.5483H175.658C177.653 31.5483 179.31 31.1733 180.631 30.4233C181.952 29.6648 182.941 28.5696 183.597 27.1378C184.254 25.6974 184.582 23.9418 184.582 21.8707C184.582 19.8168 184.254 18.0739 183.597 16.642C182.95 15.2102 181.982 14.1236 180.695 13.3821C179.408 12.6406 177.81 12.2699 175.901 12.2699H171.35V31.5483Z" fill="black"/>
</svg>
